<svg width="3918" height="3624" viewBox="0 0 3918 3624" fill="none" xmlns="http://www.w3.org/2000/svg">
<rect width="3918" height="3624" fill="#0059D4"/>
<path fill-rule="evenodd" clip-rule="evenodd" d="M277.056 213.057C349.883 340.699 418.653 461.233 564.5 524C923.5 678.5 1465.49 789.012 1730.5 524C1987 267.5 3339 -88 2808.5 990C2461.67 1694.78 1981 1684 1275.5 1416C979.635 1303.61 596.46 1301.43 290.906 1299.69C181.449 1299.07 81.9537 1298.51 0 1292.95L0 0L135.933 0C193.873 67.2624 236.106 141.284 277.056 213.057Z" fill="#006BFF"/>
<path fill-rule="evenodd" clip-rule="evenodd" d="M3918 2238.58V3624H0V2761.73C0.0379805 2761.71 0.0759647 2761.69 0.113953 2761.66C359.533 2533.75 1049.33 2096.35 1607.28 2326.5C2223.02 2580.49 3146.69 2860.07 3918 2238.58Z" fill="#006BFF"/>
<path d="M2530.05 451.066C2266.88 557.373 2273.1 843 2530.05 843C2762.7 843 2714.55 376.539 2530.05 451.066Z" fill="#0059D4"/>
<path d="M2224.6 1196.39C2119.65 1180.31 2125.32 1309.07 2224.6 1309.07C2314.49 1309.07 2281.24 1205.07 2224.6 1196.39Z" fill="#0059D4"/>
<path d="M3247.98 1395.93C3143.31 1407.83 3096.67 1525.89 3204.45 1559.45C3302.04 1589.84 3344.91 1384.91 3247.98 1395.93Z" fill="#006BFF"/>
<path d="M2147.71 3054.8C2031.98 3008.73 2051.32 3254.23 2147.71 3195.26C2216.65 3153.08 2206.65 3078.26 2147.71 3054.8Z" fill="#0059D4"/>
<path d="M915.398 2452.1C906.789 2403.66 845.457 2478.71 874.971 2490.47C912.412 2505.37 922.256 2490.69 915.398 2452.1Z" fill="#0059D4"/>
<path d="M997.611 2523.99C962.606 2450.78 882.248 2567.89 930.93 2587.28C992.685 2611.87 1019.22 2569.19 997.611 2523.99Z" fill="#0059D4"/>
<path d="M1160.07 825.64C1130.52 809.32 1128.12 874 1160.07 874C1189 874 1184.17 838.948 1160.07 825.64Z" fill="#0059D4"/>
<path d="M209.829 1020.15C76.287 976.666 77.1609 1223 209.829 1223C329.952 1223 324.8 1057.58 209.829 1020.15Z" fill="#0059D4"/>
<path d="M612.972 1759.81C436.767 1721.36 223.719 1813.67 358.281 1999.72C564.94 2285.47 806.547 1802.04 612.972 1759.81Z" fill="#006BFF"/>
<path d="M3498.09 1431.75C3207.6 1655.42 3051.59 2092.59 3384.49 2079.72C3983.37 2056.57 3770.31 1222.14 3498.09 1431.75Z" fill="#006BFF"/>
<path d="M3774.66 2927.66C3836.08 2758.09 3737.66 2565.25 3564.07 2715.56C3385.53 2870.16 3707.18 3113.94 3774.66 2927.66Z" fill="#0059D4"/>
<path d="M221.019 3296.1C185.505 3346.39 215.505 3444.39 303.808 3376.68C348.016 3342.77 259.721 3241.29 221.019 3296.1Z" fill="#0059D4"/>
<path d="M2261.53 2273.67C2211.21 2283.17 2231.66 2394.5 2306.01 2339.71C2343.23 2312.27 2309.55 2264.6 2261.53 2273.67Z" fill="#006BFF"/>
<path d="M2397.24 2108.09C2333.6 2123.36 2351.89 2262.18 2448.6 2188.31C2497.02 2151.33 2457.97 2093.52 2397.24 2108.09Z" fill="#006BFF"/>
<path d="M499.241 28.0908C435.599 43.36 453.895 182.178 550.603 108.312C599.019 71.3308 559.971 13.5205 499.241 28.0908Z" fill="#006BFF"/>
<path d="M3461.5 168C3380.43 259.436 3440.02 428.587 3617.44 297.832C3706.26 232.37 3530.62 90.0462 3461.5 168Z" fill="#006BFF"/>
<path d="M1076.37 782.593C1087.03 832.248 1151.26 809.938 1150 766.785C1148.7 722.38 1068.58 746.317 1076.37 782.593Z" fill="#0059D4"/>
</svg>
