<svg width="189" height="189" viewBox="0 0 189 189" fill="none" xmlns="http://www.w3.org/2000/svg">
<path fill-rule="evenodd" clip-rule="evenodd" d="M5.2704 35.0699C0.270397 50.5699 -4.72954 70.0699 8.27036 86.5696C8.60368 91.2362 9.27032 100.07 13.7703 107.57L13.7706 107.57C18.9156 116.145 24.2705 125.07 28.2703 125.07C32.7705 125.07 55.7705 100.07 58.2705 79.5699C59.5499 69.0786 59.2478 60.2898 58.9881 52.7342C58.7403 45.5261 58.5311 39.4405 59.7705 34.0699C62.309 23.0697 69.7703 14.124 81.7703 16.0699C100.27 19.0699 110.77 37.5699 112.77 47.0699C109.191 30.0699 109.27 18.5699 112.77 16.0699C117.67 12.5699 130.27 9.06989 155.27 26.0699C135.27 4.06988 109.805 -2.93515 80.7703 1.06972C37.2703 7.0699 10.6037 38.7366 8.27036 58.0699C6.48319 56.0077 6.14753 50.1355 5.63579 41.1827C5.52712 39.2816 5.41052 37.2417 5.2704 35.0699ZM38.7705 95.5699C41.2557 95.5699 43.2705 93.3313 43.2705 90.5699C43.2705 87.8085 41.2557 85.5699 38.7705 85.5699C36.2852 85.5699 34.2705 87.8085 34.2705 90.5699C34.2705 93.3313 36.2852 95.5699 38.7705 95.5699Z" fill="url(#paint0_radial_173_85)"/>
<path fill-rule="evenodd" clip-rule="evenodd" d="M115.271 93.0699C114.771 87.0699 113.021 65.0699 115.271 51.5699C117.771 36.5699 125.771 19.5699 132.271 18.5699C140.77 17.5699 159.271 30.5699 168.271 44.0699C168.464 44.3602 168.656 44.6472 168.845 44.9311C177.463 57.8534 181.824 64.3924 184.271 79.0699C185.547 87.5776 185.375 95.7234 185.296 99.5046C185.282 100.168 185.271 100.697 185.271 101.07C185.271 101.898 185.64 103.403 186.139 105.434C187.176 109.653 188.771 116.145 188.771 123.57C188.771 134.57 185.771 149.57 174.771 157.07C174.906 156.325 175.118 155.376 175.361 154.292C176.312 150.038 177.727 143.714 176.771 139.57C167.937 156.403 139.671 189.77 97.2705 188.57C44.2705 187.07 22.7705 152.07 17.7705 142.07C13.2705 133.07 10.2705 117.07 10.2705 107.07C16.9372 122.57 34.2705 149.67 48.2705 148.07C56.7182 147.104 60.0394 138.216 62.9585 130.404C63.0629 130.125 63.1669 129.846 63.2705 129.57C66.7197 120.372 75.2705 104.07 86.7705 95.0699C82.2705 108.57 81.016 136.807 84.7705 148.07C87.7705 157.07 97.7705 173.07 109.771 168.57C121.771 164.07 138.771 150.07 124.271 118.07C120.104 119.07 111.771 123.17 111.771 131.57C109.104 122.903 106.071 103.07 115.271 93.0699ZM151.271 54.5699C154.584 54.5699 157.271 51.8836 157.271 48.5699C157.271 45.2562 154.584 42.5699 151.271 42.5699C147.957 42.5699 145.271 45.2562 145.271 48.5699C145.271 51.8836 147.957 54.5699 151.271 54.5699Z" fill="url(#paint1_angular_173_85)"/>
<defs>
<radialGradient id="paint0_radial_173_85" cx="0" cy="0" r="1" gradientUnits="userSpaceOnUse" gradientTransform="translate(46.2705 130.57) rotate(-69.684) scale(139.69 103.509)">
<stop stop-color="#006BFF"/>
<stop offset="1" stop-color="#00C2FF"/>
</radialGradient>
<radialGradient id="paint1_angular_173_85" cx="0" cy="0" r="1" gradientUnits="userSpaceOnUse" gradientTransform="translate(97.3198 93.0699) rotate(176.905) scale(101.869 99.3201)">
<stop stop-color="#006BFF"/>
<stop offset="1" stop-color="#00C2FF"/>
</radialGradient>
</defs>
</svg>
